# xmcd CD database file
#
# Track frame offsets:
#	150
#	20534
#	39235
#	56797
#	72065
#	87053
#	104653
#	121132
#	144930
#	162092
#	181878
#	202200
#	218134
#	238397
#	257602
#	274541
#	299000
#	318938
#	339659
#
# Disc length: 4765 seconds
#
# Revision: 1
# Processed by: cddbd v1.5.2PL0 Copyright (c) Steve Scherf et al.
# Submitted via: CDex 1.51
#
DISCID=1c129b13
DTITLE=Chilled - 1991 - 2010 CD3
DYEAR=2010
DGENRE=New Age
TTITLE0=Dubtribe Sound System - do it now
TTITLE1=Doctor Rockit - Cafe de Flore
TTITLE2=Julian Jabre - swimming places
TTITLE3=Eric Prydz - Pjanoo
TTITLE4=Touch and Go - straight to number one
TTITLE5=Laidback Luke - beautiful day
TTITLE6=Djuma Soundsystem - les djinns
TTITLE7=Kings of Tomorrow feat Julie McKnight - finally
TTITLE8=Bent - magic love
TTITLE9=DJ Pipi - fatal fatal
TTITLE10=Kid Cudi Vs Crookers - day 'N' nite
TTITLE11=Jakatta - American dream
TTITLE12=Pedro Cazanova Invites Andrea - selfish love
TTITLE13=G Club presents Banda Sonora - guitarra G
TTITLE14=Roger Sanchez - another chance
TTITLE15=Lio - rapture
TTITLE16=Spiller - cry baby
TTITLE17=D'Note - shed my skin
TTITLE18=Bonus track
EXTD=YEAR: 2010
EXTT0=
EXTT1=
EXTT2=
EXTT3=
EXTT4=
EXTT5=
EXTT6=
EXTT7=
EXTT8=
EXTT9=
EXTT10=
EXTT11=
EXTT12=
EXTT13=
EXTT14=
EXTT15=
EXTT16=
EXTT17=
EXTT18=
PLAYORDER=
